<svg width="197.267" height="72.071" viewBox="0 0 197.267 72.071" xmlns="http://www.w3.org/2000/svg"><g id="svgGroup" stroke-linecap="round" fill-rule="evenodd" font-size="9pt" stroke="#000" stroke-width="0.25mm" fill="#000" style="stroke:#000;stroke-width:0.25mm;fill:#000"><path d="M 17.676 55.958 L 20.898 67.677 L 24.121 55.958 L 40.918 0.977 L 43.848 0.977 L 60.547 55.958 L 63.721 67.677 L 67.041 55.958 L 81.689 0.977 L 84.57 0.977 L 65.43 72.071 L 62.451 72.071 L 44.824 12.794 L 42.334 5.274 L 39.941 12.794 L 22.168 72.071 L 19.189 72.071 L 0 0.977 L 2.93 0.977 L 17.676 55.958 Z M 137.598 69.434 L 137.598 72.071 L 95.068 72.071 L 95.068 69.434 L 119.336 41.456 A 106.354 106.354 0 0 0 123.223 36.639 Q 124.975 34.325 126.33 32.214 A 46.81 46.81 0 0 0 128.198 29.053 A 29.002 29.002 0 0 0 129.967 25.117 Q 130.739 22.953 130.987 20.947 A 15.139 15.139 0 0 0 131.104 19.093 Q 131.104 11.62 126.95 7.342 A 13.768 13.768 0 0 0 126.562 6.959 A 14.848 14.848 0 0 0 120.28 3.465 Q 117.969 2.805 115.207 2.672 A 29.691 29.691 0 0 0 113.77 2.637 Q 108.789 2.637 104.688 5.03 Q 100.586 7.423 98.267 11.646 A 18.964 18.964 0 0 0 95.968 20.084 A 22.525 22.525 0 0 0 95.947 21.046 L 93.311 21.046 A 21.948 21.948 0 0 1 95.947 10.45 A 19.528 19.528 0 0 1 103.271 2.784 A 20.01 20.01 0 0 1 113.048 0.012 A 23.834 23.834 0 0 1 113.77 0.001 A 28.727 28.727 0 0 1 119.66 0.568 Q 125.014 1.69 128.516 5.03 A 16.449 16.449 0 0 1 133.166 13.355 A 24.886 24.886 0 0 1 133.789 19.093 A 18.963 18.963 0 0 1 132.687 25.186 Q 130.888 30.474 126.154 36.793 A 78.183 78.183 0 0 1 124.463 38.966 L 120.02 44.385 L 98.535 69.434 L 137.598 69.434 Z M 175 72.071 L 152.1 72.071 L 152.1 0.977 L 170.801 0.977 Q 182.275 0.977 188.159 5.64 A 15.112 15.112 0 0 1 193.709 15.195 A 22.803 22.803 0 0 1 194.043 19.19 A 20.908 20.908 0 0 1 193.503 24.064 A 15.215 15.215 0 0 1 190.771 29.884 A 14.107 14.107 0 0 1 183.852 34.7 A 18.901 18.901 0 0 1 181.543 35.303 Q 188.281 36.182 192.773 41.138 A 16.42 16.42 0 0 1 197.266 52.491 A 22.554 22.554 0 0 1 196.438 58.763 A 16.843 16.843 0 0 1 191.382 66.822 A 19.501 19.501 0 0 1 183.632 70.975 Q 180.756 71.797 177.339 72.003 A 38.961 38.961 0 0 1 175 72.071 Z M 176.318 36.964 L 154.736 36.964 L 154.736 69.434 L 175.293 69.434 A 29.454 29.454 0 0 0 181.015 68.912 Q 186.087 67.907 189.478 64.967 A 14.616 14.616 0 0 0 194.382 55.885 A 21.185 21.185 0 0 0 194.629 52.589 A 14.854 14.854 0 0 0 193.384 46.442 A 14.441 14.441 0 0 0 189.648 41.48 A 17.416 17.416 0 0 0 182.437 37.751 Q 179.645 37.022 176.318 36.964 Z M 154.736 3.614 L 154.736 34.327 L 171.777 34.327 Q 181.494 34.327 186.426 30.592 A 11.892 11.892 0 0 0 190.775 23.912 Q 191.357 21.697 191.357 18.995 A 16.158 16.158 0 0 0 189.948 12.004 Q 186.737 5.237 176.21 3.925 A 43.394 43.394 0 0 0 171.387 3.614 L 154.736 3.614 Z" vector-effect="non-scaling-stroke"/></g></svg>